<svg xmlns="http://www.w3.org/2000/svg" version="1.1" xmlns:xlink="http://www.w3.org/1999/xlink" xmlns:svgjs="http://svgjs.dev/svgjs" width="2351.15" height="2278.29"><svg id="SvgjsSvg1005" data-name="Layer 2" xmlns="http://www.w3.org/2000/svg" viewBox="0 0 2351.15 2278.29">
      <path d="M1264.45,2.11c209.5-2.31,419.23-3.55,628.71.78l.87,34c-74.86,108.14-129.98,240.2-204.43,347.11-41.89,60.15-84.16,35.34-151.17,38.1-227.92,9.37-500.26-15.97-718.93,11.1-317.11,39.26-523.46,456.05-242.48,669.56,136.92,104.04,324.94,71.08,485.65,76.74,13.98,2.05,25.82,20.37,23.62,33.84l-216.37,368.03c-23.71,41.63-83.67,32.81-126.14,30.58C-16.46,1572-255.25,677.44,316.66,211.54,617.37-33.41,899.8,6.13,1264.45,2.11Z"></path>
      <path d="M1545.17,666.77c18.95-5.56,119.38-2.93,144.82-1.04,291.79,21.63,542.36,239.63,626.09,514.91,138.26,454.56-147.92,912.38-586.73,1049.26-189.2,59.02-428.65,45.24-628.47,47.48-191.88,2.15-384.24.21-576.05-3.09-19.94-12.55-20.92-33.65-10.38-53.43,81.2-124.79,147.15-260.67,237.49-378.95,36.49-6.37,73.92-1.26,110.69-2.87,208.75-9.14,427.8,8,632.97-5.13,290.7-18.59,505.87-331.87,347.5-596.7-111.46-186.38-313.53-170.72-504.56-165.99-34.46-6.4,3.84-62.31,12.6-79.35,42.87-83.51,97.48-178.87,146.01-259.56,8.98-14.93,33.59-61.32,48.01-65.55Z"></path>
  
</svg><style>@media (prefers-color-scheme: light) { :root { filter: none; } }
@media (prefers-color-scheme: dark) { :root { filter: invert(100%); } }
</style></svg>